<svg xmlns="http://www.w3.org/2000/svg" viewBox="0 0 512 512">
  <defs>
    <linearGradient id="sky" x1="0" y1="0" x2="1" y2="1">
      <stop offset="0" stop-color="#fff8df"/>
      <stop offset="0.55" stop-color="#f7cf68"/>
      <stop offset="1" stop-color="#7fab8a"/>
    </linearGradient>
    <radialGradient id="sun" cx="42%" cy="35%" r="62%">
      <stop offset="0" stop-color="#fff7b0"/>
      <stop offset="0.58" stop-color="#f8c845"/>
      <stop offset="1" stop-color="#e8991f"/>
    </radialGradient>
  </defs>
  <rect width="512" height="512" rx="112" fill="url(#sky)"/>
  <circle cx="256" cy="238" r="103" fill="url(#sun)"/>
  <g stroke="#f4ae2f" stroke-width="25" stroke-linecap="round">
    <path d="M256 69v43M256 364v43M87 238h43M382 238h43"/>
    <path d="m137 119 31 31M344 326l31 31M137 357l31-31M344 150l31-31"/>
  </g>
  <path d="M45 433c77-85 145-99 212-43 64-69 133-53 210 43v79H45z" fill="#527f64" opacity=".86"/>
  <path d="M0 467c92-55 170-58 245-9 84-46 173-40 267 19v35H0z" fill="#315e47" opacity=".78"/>
</svg>
